<svg width="350" height="49" viewBox="0 0 350 49" fill="none" xmlns="http://www.w3.org/2000/svg">
<path d="M259.352 23.9118C261.236 24.0438 262.757 24.691 263.914 25.8532C265.099 27.0155 265.691 28.706 265.691 30.9249C265.691 33.3286 264.937 35.1512 263.43 36.3927C261.949 37.6078 259.877 38.2153 257.212 38.2153H250.994V11.2327H255.96C258.679 11.2327 260.765 11.8006 262.219 12.9365C263.699 14.0723 264.439 15.7232 264.439 17.8892C264.439 19.5798 263.995 20.9401 263.107 21.9703C262.219 22.974 260.967 23.6212 259.352 23.9118ZM251.923 12.0648V23.5552H257.535C259.365 23.5552 260.805 23.0401 261.855 22.0099C262.932 20.9533 263.47 19.593 263.47 17.9288C263.47 16.0006 262.838 14.5478 261.573 13.5704C260.334 12.5667 258.504 12.0648 256.081 12.0648H251.923ZM257.252 37.3833C259.621 37.3833 261.465 36.855 262.784 35.7984C264.103 34.7154 264.762 33.0909 264.762 30.9249C264.762 28.7853 264.13 27.1608 262.865 26.0514C261.626 24.9155 259.917 24.3476 257.737 24.3476H251.923V37.3833H257.252Z" fill="white"/>
<path d="M286.133 38.2153L279.269 25.3382L278.502 25.3778H273.293V38.2153H272.365V11.2327H277.452C280.44 11.2327 282.607 11.8271 283.952 13.0157C285.325 14.2044 286.012 15.9477 286.012 18.2458C286.012 20.2269 285.5 21.7986 284.477 22.9608C283.455 24.1231 282.041 24.8627 280.238 25.1797L287.183 38.2153H286.133ZM277.937 24.5457C280.198 24.5457 281.947 24.0306 283.185 23.0005C284.45 21.9439 285.083 20.359 285.083 18.2458C285.083 16.2119 284.491 14.6798 283.306 13.6497C282.122 12.5931 280.13 12.0648 277.331 12.0648H273.293V24.5457H277.937Z" fill="white"/>
<path d="M304.892 11.2327L304.771 12.0648H294.112V23.5552H303.318V24.3872H294.112V37.3833H305.175V38.2153H293.183V11.2327H304.892Z" fill="white"/>
<path d="M325.253 38.2153L322.75 30.172H311.283L308.78 38.2153H307.892L316.451 11.2327H317.582L326.182 38.2153H325.253ZM311.566 29.34H322.467L317.016 11.9459L311.566 29.34Z" fill="white"/>
<path d="M336.186 11.2327C339.389 11.2327 342 12.1837 344.019 14.0855C346.038 15.961 347.047 19.4081 347.047 24.4269C347.047 29.5249 346.011 33.1041 343.938 35.1644C341.893 37.1983 339.362 38.2153 336.348 38.2153H331.745V11.2327H336.186ZM332.674 12.0648V37.3833H336.388C339.188 37.3833 341.502 36.4323 343.333 34.5305C345.163 32.6022 346.078 29.2343 346.078 24.4269C346.078 19.6194 345.15 16.3572 343.292 14.6402C341.462 12.9233 339.08 12.0648 336.146 12.0648H332.674Z" fill="white"/>
<rect x="241.536" y="21.8038" width="1.43344" height="1.4067" rx="0.703349" fill="#E5E5E5"/>
<rect x="241.536" y="24.6172" width="1.43344" height="1.4067" rx="0.703352" fill="#E5E5E5"/>
<path d="M68.0881 37.7101C67.5767 37.7101 67.146 37.5384 66.7961 37.195C66.4462 36.8516 66.2712 36.429 66.2712 35.9271V11.4803C66.2712 10.9784 66.4462 10.5558 66.7961 10.2124C67.146 9.84259 67.5767 9.65769 68.0881 9.65769C68.5996 9.65769 69.0302 9.84259 69.3801 10.2124C69.757 10.5558 69.9454 10.9784 69.9454 11.4803V24.0801L83.7538 10.2916C84.1306 9.86901 84.5882 9.65769 85.1266 9.65769C85.5842 9.65769 85.9745 9.81618 86.2975 10.1332C86.6474 10.4237 86.8223 10.7935 86.8223 11.2426C86.8223 11.7709 86.6743 12.1803 86.3782 12.4709L77.0515 21.5839L87.751 34.8177C88.0471 35.1875 88.1951 35.5705 88.1951 35.9667C88.222 36.4422 88.0605 36.8516 87.7106 37.195C87.3607 37.5384 86.93 37.7101 86.4186 37.7101C85.7995 37.7101 85.315 37.4723 84.9651 36.9969L74.5482 23.9612L69.9454 28.5178V35.9271C69.9454 36.429 69.757 36.8516 69.3801 37.195C69.0302 37.5384 68.5996 37.7101 68.0881 37.7101Z" fill="white"/>
<path d="M104.573 37.9082C101.747 37.9082 99.2707 37.3006 97.1443 36.0856C95.0178 34.8705 93.3759 33.1932 92.2184 31.0536C91.061 28.914 90.4554 26.4574 90.4016 23.6839C90.4554 20.9103 91.061 18.4538 92.2184 16.3142C93.3759 14.1746 95.0178 12.4973 97.1443 11.2822C99.2707 10.0671 101.747 9.45958 104.573 9.45958C107.4 9.45958 109.863 10.0671 111.962 11.2822C114.088 12.4973 115.73 14.1878 116.888 16.3538C118.072 18.4934 118.691 20.9368 118.745 23.6839C118.691 26.431 118.072 28.8876 116.888 31.0536C115.73 33.1932 114.088 34.8705 111.962 36.0856C109.863 37.3006 107.4 37.9082 104.573 37.9082ZM104.573 34.5403C106.727 34.5403 108.597 34.0648 110.186 33.1139C111.774 32.163 112.985 30.8687 113.819 29.231C114.654 27.5933 115.071 25.7442 115.071 23.6839C115.071 21.6235 114.654 19.7745 113.819 18.1368C112.985 16.4991 111.774 15.2048 110.186 14.2538C108.597 13.3029 106.727 12.8274 104.573 12.8274C102.393 12.8274 100.509 13.3029 98.9208 14.2538C97.3596 15.2048 96.1618 16.4991 95.3274 18.1368C94.4929 19.7745 94.0757 21.6235 94.0757 23.6839C94.0757 25.7442 94.4929 27.5933 95.3274 29.231C96.1618 30.8687 97.3596 32.163 98.9208 33.1139C100.509 34.0648 102.393 34.5403 104.573 34.5403Z" fill="white"/>
<path d="M133.746 37.9082C130.327 37.9082 127.124 37.2742 124.136 36.0063C123.813 35.8743 123.544 35.6629 123.329 35.3724C123.113 35.0554 123.006 34.7252 123.006 34.3818C123.006 33.9328 123.154 33.5498 123.45 33.2328C123.773 32.8894 124.177 32.7177 124.661 32.7177C124.93 32.7177 125.186 32.7705 125.428 32.8762C127.905 33.9592 130.556 34.5007 133.382 34.5007C138.093 34.5007 140.448 32.9818 140.448 29.9442C140.448 29.1517 140.138 28.4914 139.519 27.9631C138.927 27.4348 138.187 27.0253 137.299 26.7348C136.41 26.4178 135.145 26.048 133.503 25.6254C131.323 25.0707 129.56 24.5424 128.214 24.0405C126.868 23.5122 125.711 22.733 124.742 21.7028C123.773 20.6726 123.288 19.299 123.288 17.5821C123.288 16.0765 123.692 14.7161 124.5 13.501C125.307 12.2595 126.491 11.2822 128.053 10.569C129.641 9.82938 131.538 9.45958 133.746 9.45958C136.706 9.45958 139.385 9.89542 141.78 10.7671C142.534 11.0313 142.911 11.5595 142.911 12.352C142.911 12.7746 142.763 13.1576 142.467 13.501C142.171 13.8444 141.78 14.0161 141.296 14.0161C141.134 14.0161 140.919 13.9633 140.65 13.8576C138.55 13.1444 136.383 12.7878 134.149 12.7878C132.023 12.7878 130.287 13.184 128.941 13.9765C127.622 14.7689 126.962 15.8783 126.962 17.3047C126.962 18.2557 127.272 19.0349 127.891 19.6424C128.537 20.2236 129.331 20.6858 130.273 21.0292C131.242 21.3462 132.548 21.6896 134.19 22.0594C136.316 22.5613 138.025 23.0631 139.317 23.565C140.636 24.0669 141.753 24.8461 142.668 25.9027C143.611 26.9593 144.082 28.3857 144.082 30.1819C144.082 31.6611 143.651 32.9951 142.79 34.1837C141.928 35.346 140.717 36.2573 139.156 36.9176C137.595 37.578 135.791 37.9082 133.746 37.9082Z" fill="white"/>
<path d="M151.56 37.512C151.048 37.512 150.618 37.3403 150.268 36.9969C149.918 36.6535 149.743 36.2309 149.743 35.729V11.6784C149.743 11.1765 149.918 10.7539 150.268 10.4105C150.618 10.0407 151.048 9.8558 151.56 9.8558H167.75C168.235 9.8558 168.638 10.0275 168.961 10.3709C169.311 10.6879 169.486 11.0841 169.486 11.5595C169.486 12.035 169.311 12.4312 168.961 12.7482C168.638 13.0652 168.235 13.2237 167.75 13.2237H153.417V21.9801H166.297C166.781 21.9801 167.185 22.1518 167.508 22.4952C167.858 22.8122 168.033 23.2084 168.033 23.6839C168.033 24.1593 167.858 24.5556 167.508 24.8725C167.185 25.1895 166.781 25.348 166.297 25.348H153.417V34.1441H167.75C168.235 34.1441 168.638 34.3158 168.961 34.6592C169.311 34.9762 169.486 35.3724 169.486 35.8478C169.486 36.3233 169.311 36.7195 168.961 37.0365C168.638 37.3535 168.235 37.512 167.75 37.512H151.56Z" fill="white"/>
<path d="M178.034 37.512C177.334 37.512 176.728 37.2742 176.217 36.7988C175.732 36.2969 175.49 35.7026 175.49 35.0158V11.4803C175.49 10.9784 175.665 10.5558 176.015 10.2124C176.365 9.84259 176.795 9.65769 177.307 9.65769C177.818 9.65769 178.249 9.84259 178.599 10.2124C178.976 10.5558 179.164 10.9784 179.164 11.4803V33.9064H192.367C192.878 33.9064 193.309 34.0913 193.659 34.4611C194.036 34.8045 194.224 35.2271 194.224 35.729C194.224 36.2309 194.036 36.6535 193.659 36.9969C193.309 37.3403 192.878 37.512 192.367 37.512H178.034Z" fill="white"/>
<path d="M200.57 37.7101C200.059 37.7101 199.628 37.5384 199.278 37.195C198.928 36.8516 198.753 36.429 198.753 35.9271V11.4803C198.753 10.9784 198.928 10.5558 199.278 10.2124C199.628 9.84259 200.059 9.65769 200.57 9.65769C201.081 9.65769 201.512 9.84259 201.862 10.2124C202.239 10.5558 202.427 10.9784 202.427 11.4803V35.9271C202.427 36.429 202.239 36.8516 201.862 37.195C201.512 37.5384 201.081 37.7101 200.57 37.7101Z" fill="white"/>
<path d="M222.742 37.9082C219.97 37.9082 217.507 37.3139 215.354 36.1252C213.2 34.9101 211.532 33.2328 210.347 31.0932C209.163 28.9272 208.571 26.4706 208.571 23.7235C208.571 20.9235 209.19 18.4406 210.428 16.2746C211.666 14.1086 213.348 12.4312 215.475 11.2426C217.628 10.0539 220.01 9.45958 222.621 9.45958C224.721 9.45958 226.551 9.71052 228.112 10.2124C229.7 10.7143 231.221 11.4143 232.675 12.3124C232.89 12.418 233.079 12.6029 233.24 12.8671C233.402 13.1312 233.482 13.4218 233.482 13.7388C233.482 14.1878 233.321 14.5708 232.998 14.8878C232.702 15.2048 232.298 15.3633 231.787 15.3633C231.49 15.3633 231.208 15.2972 230.939 15.1651C229.674 14.4255 228.408 13.8708 227.143 13.501C225.878 13.1312 224.505 12.9463 223.025 12.9463C220.979 12.9463 219.136 13.369 217.494 14.2142C215.852 15.0595 214.56 16.301 213.618 17.9387C212.702 19.55 212.245 21.4783 212.245 23.7235C212.245 25.7838 212.675 27.6329 213.537 29.2706C214.425 30.8819 215.69 32.163 217.332 33.1139C219.001 34.0384 220.966 34.5007 223.227 34.5007C225.757 34.5007 228.112 33.9196 230.293 32.7573V25.5857H223.631C223.173 25.5857 222.783 25.4272 222.46 25.1103C222.137 24.7933 221.975 24.4103 221.975 23.9612C221.975 23.5122 222.137 23.1292 222.46 22.8122C222.783 22.4952 223.173 22.3367 223.631 22.3367H231.585C232.123 22.3367 232.581 22.5216 232.957 22.8914C233.334 23.2612 233.523 23.7103 233.523 24.2386V33.2328C233.523 33.7875 233.375 34.2894 233.079 34.7384C232.809 35.1611 232.446 35.478 231.988 35.6894C228.974 37.1686 225.892 37.9082 222.742 37.9082Z" fill="white"/>
<rect x="22.9353" width="1.43345" height="1.4067" rx="0.703349" fill="#E5E5E5"/>
<rect x="22.9353" y="2.8134" width="1.43345" height="1.4067" rx="0.703349" fill="#E5E5E5"/>
<rect x="5.73389" y="5.6268" width="1.43345" height="1.4067" rx="0.703349" fill="#E5E5E5"/>
<rect x="40.1367" y="5.6268" width="1.43344" height="1.4067" rx="0.703349" fill="#E5E5E5"/>
<rect x="5.73389" y="39.3876" width="1.43345" height="1.4067" rx="0.703348" fill="#E5E5E5"/>
<rect x="40.1367" y="39.3876" width="1.43344" height="1.4067" rx="0.703348" fill="#E5E5E5"/>
<rect x="22.9353" y="42.201" width="1.43345" height="1.4067" rx="0.70335" fill="#E5E5E5"/>
<rect x="22.9353" y="45.0143" width="1.43345" height="1.4067" rx="0.70335" fill="#E5E5E5"/>
<rect x="22.9353" y="19.6938" width="1.43345" height="1.4067" rx="0.703349" fill="#E5E5E5"/>
<rect x="20.0684" y="22.5072" width="1.43344" height="1.4067" rx="0.703349" fill="#E5E5E5"/>
<rect x="22.9353" y="22.5072" width="1.43345" height="1.4067" rx="0.703349" fill="#E5E5E5"/>
<rect x="25.8022" y="22.5072" width="1.43345" height="1.4067" rx="0.703349" fill="#E5E5E5"/>
<rect x="22.9353" y="25.3206" width="1.43345" height="1.4067" rx="0.70335" fill="#E5E5E5"/>
<rect x="11.4675" width="1.43345" height="9.84689" rx="0.716723" fill="white"/>
<rect x="34.4028" width="1.43345" height="9.84689" rx="0.716724" fill="white"/>
<rect x="14.3345" y="2.8134" width="1.43345" height="9.84689" rx="0.716725" fill="white"/>
<rect x="31.5359" y="2.8134" width="1.43345" height="9.84689" rx="0.716723" fill="white"/>
<rect x="17.2014" y="5.6268" width="1.43345" height="9.84689" rx="0.716724" fill="white"/>
<rect x="28.6689" y="5.6268" width="1.43345" height="9.84689" rx="0.716727" fill="white"/>
<rect x="20.0684" y="8.44019" width="1.43344" height="9.84689" rx="0.716722" fill="white"/>
<rect x="25.802" y="8.44019" width="1.43345" height="9.84689" rx="0.716727" fill="white"/>
<rect y="11.2536" width="10.0341" height="1.4067" rx="0.703349" fill="white"/>
<rect x="37.2695" y="11.2536" width="10.0341" height="1.4067" rx="0.703349" fill="white"/>
<rect x="2.86694" y="14.067" width="10.0341" height="1.4067" rx="0.703349" fill="white"/>
<rect x="34.4028" y="14.067" width="10.0341" height="1.4067" rx="0.703349" fill="white"/>
<rect x="5.73389" y="16.8804" width="10.0341" height="1.4067" rx="0.70335" fill="white"/>
<rect x="31.5359" y="16.8804" width="10.0341" height="1.4067" rx="0.70335" fill="white"/>
<rect x="8.60059" y="19.6938" width="10.0341" height="1.4067" rx="0.703349" fill="white"/>
<rect x="28.6689" y="19.6938" width="10.0341" height="1.4067" rx="0.703349" fill="white"/>
<rect x="8.60059" y="25.3206" width="10.0341" height="1.4067" rx="0.70335" fill="white"/>
<rect x="28.6689" y="25.3206" width="10.0341" height="1.4067" rx="0.70335" fill="white"/>
<rect x="5.73389" y="28.134" width="10.0341" height="1.4067" rx="0.70335" fill="white"/>
<rect x="31.5359" y="28.134" width="10.0341" height="1.4067" rx="0.70335" fill="white"/>
<rect x="2.86694" y="30.9474" width="10.0341" height="1.4067" rx="0.703351" fill="white"/>
<rect x="34.4028" y="30.9474" width="10.0341" height="1.4067" rx="0.703351" fill="white"/>
<rect y="33.7608" width="10.0341" height="1.4067" rx="0.70335" fill="white"/>
<rect x="37.2695" y="33.7608" width="10.0341" height="1.4067" rx="0.70335" fill="white"/>
<rect x="20.0684" y="28.134" width="1.43344" height="9.84689" rx="0.716722" fill="white"/>
<rect x="25.802" y="28.134" width="1.43345" height="9.84689" rx="0.716727" fill="white"/>
<rect x="17.2014" y="30.9474" width="1.43345" height="9.84689" rx="0.716724" fill="white"/>
<rect x="28.6689" y="30.9474" width="1.43345" height="9.84689" rx="0.716727" fill="white"/>
<rect x="14.3345" y="33.7608" width="1.43345" height="9.84689" rx="0.716725" fill="white"/>
<rect x="31.5359" y="33.7608" width="1.43345" height="9.84689" rx="0.716723" fill="white"/>
<rect x="11.4675" y="36.5742" width="1.43345" height="9.84689" rx="0.716723" fill="white"/>
<rect x="34.4028" y="36.5742" width="1.43345" height="9.84689" rx="0.716724" fill="white"/>
</svg>
